<svg width="47" height="45" viewBox="0 0 47 45" fill="none" xmlns="http://www.w3.org/2000/svg">
<path d="M27.6419 44.9988V28.8228H32.1924L33.1216 22.4612H26.343V17.5989C26.343 17.2954 26.8665 16.2319 27.0861 15.9636C27.6022 15.3287 28.8242 14.8272 29.6392 14.8272H34.1426V9.2839C33.5099 9.20135 32.8723 9.07994 32.2383 9.01196C29.1046 8.67566 25.7127 8.58218 23.0616 10.481C19.0904 13.323 19.9179 18.2229 19.8422 22.4612H14.6416V28.8228H19.8422V44.9988C9.42365 43.5359 1.49001 35.3629 0.341212 25.1418C-1.01601 13.0705 7.63719 1.8345 19.9936 0.210104C35.15 -1.78215 47.8972 10.6788 46.0164 25.4951C44.7994 35.0861 37.3322 43.0964 27.6419 45V44.9988Z" fill="#142535"/>
</svg>
