<svg width="47" height="47" viewBox="0 0 47 47" fill="none" xmlns="http://www.w3.org/2000/svg">
<path d="M46.2016 23.5C46.2016 36.2582 35.859 46.6008 23.1008 46.6008C10.3426 46.6008 0 36.2582 0 23.5C0 10.7418 10.3426 0.39917 23.1008 0.39917C35.859 0.39917 46.2016 10.7418 46.2016 23.5ZM16.8921 9.3914C12.299 9.70615 9.29094 12.3168 8.86879 16.9826C9.62668 24.6763 5.5521 36.9519 17.0501 37.6357C24.2426 36.9828 36.2454 40.5982 37.3292 30.105C36.5688 22.3323 40.6928 9.99746 29.0652 9.3593C25.4757 9.16181 20.4667 9.14576 16.8921 9.39016V9.3914Z" fill="#142535"/>
<path d="M22.9915 11.9714L23.605 12.0467C28.3326 12.0665 34.1834 11.0148 34.7462 17.4433C34.4944 21.4204 35.0758 25.7924 34.7302 29.7238C34.1772 36.0264 27.7142 35.0155 23.0693 35.0143C21.1573 35.0143 18.9207 35.0784 17.0445 34.9612C13.6895 34.7513 11.7738 32.906 11.4553 29.556C11.6763 25.6061 11.1739 21.3599 11.4553 17.4445C11.933 10.7926 18.2541 12.2282 22.9915 11.9714ZM32.1529 16.0263C32.1529 15.1956 31.4802 14.5228 30.6494 14.5228C29.8187 14.5228 29.146 15.1956 29.146 16.0263C29.146 16.857 29.8187 17.5297 30.6494 17.5297C31.4802 17.5297 32.1529 16.857 32.1529 16.0263ZM30.6161 23.5003C30.6161 19.3491 27.2513 15.9843 23.1002 15.9843C18.9491 15.9843 15.5842 19.3491 15.5842 23.5003C15.5842 27.6514 18.9491 31.0162 23.1002 31.0162C27.2513 31.0162 30.6161 27.6514 30.6161 23.5003Z" fill="black"/>
<path d="M23.1041 28.3458C25.7784 28.3458 27.9464 26.1778 27.9464 23.5035C27.9464 20.8291 25.7784 18.6611 23.1041 18.6611C20.4297 18.6611 18.2617 20.8291 18.2617 23.5035C18.2617 26.1778 20.4297 28.3458 23.1041 28.3458Z" fill="black"/>
</svg>
