<svg width="47" height="45" viewBox="0 0 47 45" fill="none" xmlns="http://www.w3.org/2000/svg">
<path d="M46.2012 21.0908V23.8132L45.6907 27.2232C43.7235 36.3608 35.7812 43.5986 26.2775 44.7955C25.7455 44.8624 25.1366 44.8331 24.6261 44.9821C23.6809 44.9399 22.6877 45.0384 21.7497 44.9821C0.747548 43.7171 -7.63554 17.4332 9.08139 4.71894C23.6329 -6.3478 45.1323 3.2451 46.2012 21.0908ZM27.9517 10.6378H23.9956V26.4042C23.9956 26.6717 23.7722 27.4626 23.6809 27.7654C22.319 32.2655 16.0689 30.3375 16.7355 26.1613C17.0633 24.1101 19.4233 23.4154 21.2092 23.1103V19.1582C17.6867 19.069 14.1533 21.0873 13.1168 24.4703C11.1459 30.9043 18.0169 37.0579 24.1878 33.0916C27.9373 30.6814 27.9998 27.0578 28.0454 23.0704L27.9517 18.4553C29.7112 19.3189 31.4779 20.199 33.5257 20.0359V16.1706C30.3045 16.1483 28.1583 13.6535 27.9517 10.6366V10.6378Z" fill="#142535"/>
</svg>
